<svg xmlns="http://www.w3.org/2000/svg" viewBox="0 0 512 512" role="img" aria-labelledby="title description">
  <title id="title">ScryPuppy</title>
  <desc id="description">Cachorro vazado espiando por cima de uma base arredondada.</desc>
  <g transform="matrix(2.06 0 0 2.06 -366 -85)" fill="#E34B45" stroke="none">
    <g transform="translate(0 327) scale(.1 -.1)">
      <path d="M2449 2690c-67-6-100-15-149-40-124-63-216-189-241-330-15-88-25-1088-11-1102 7-7 48 0 129 20 285 74 533 105 828 106 302 0 551-30 824-100 73-19 140-34 148-34 14 0 15 60 10 538-4 312-10 558-17 586-5 27-26 83-46 123-62 125-177 210-314 232-75 12-1026 13-1161 1zm889-629c37-16 85-32 107-36 52-9 92-30 106-56 15-29 31-211 19-223-25-25-114 48-163 135-31 54-119 130-182 155-25 11-45 22-45 25 0 10 43 28 68 28 13 1 54-12 90-28zm-131-75c106-48 189-160 225-301 7-28 31-76 55-108 24-33 43-65 43-72 0-7-17-30-37-51-21-22-42-47-48-57-9-17-17-18-120-6-122 14-558 18-618 6l-38-8 28 42c26 39 28 50 27 128-3 195-9 309-17 304-4-2-15-19-24-36-15-27-17-55-15-165 2-113 0-139-17-176-25-57-52-66-94-32-18 15-59 45-92 68-93 64-115 92-115 149 0 25 10 40 52 78 29 25 92 83 140 129 86 80 90 82 138 82 27 0 52-4 55-10 10-16 35-12 67 11 58 42 134 59 243 56 85-2 110-7 162-31zm-705-573c34-34 30-53-10-53-15 0-69-9-121-20-52-11-98-20-103-20-14 0-9 34 11 66 43 71 164 86 223 27zm1195 20c37-17 73-65 73-95 0-22 3-22-115 2-53 11-108 20-121 20-12 0-25 4-28 9-8 12 32 61 58 71 35 14 96 11 133-7z"/>
      <path d="M3274 1785c-14-22-15-32-5-64 6-21 18-44 26-51 24-20 67-15 87 10 25 31 23 63-8 99-33 40-76 42-100 6zm84-18c4-20-25-34-40-19-15 15-1 44 19 40 10-2 19-11 21-21z"/>
      <path d="M2924 1700c-55-22-72-108-31-155 14-17 36-28 63-32 36-5 44-1 72 27 78 78-2 201-104 160zm86-35c10-12 10-18 0-30-25-30-61-7-46 30 3 8 12 15 19 15 8 0 20-7 27-15z"/>
      <path d="M3280 1559c-35-14-60-39-60-61 0-22 55-58 91-58 46 0 91 70 69 110-12 22-56 26-100 9z"/>
    </g>
  </g>
  <path d="M56 354c53-18 124-28 200-28s147 10 200 28v28c0 61-49 110-110 110H166c-61 0-110-49-110-110v-28Z" fill="#E34B45"/>
</svg>
